<?xml version="1.0" standalone="no"?>
<svg xmlns:xlink="http://www.w3.org/1999/xlink" id="wave" style="transform:rotate(180deg); transition: 0.3s" viewBox="0 0 1440 490" version="1.1" xmlns="http://www.w3.org/2000/svg"><defs><linearGradient id="sw-gradient-0" x1="0" x2="0" y1="1" y2="0"><stop stop-color="rgba(4, 111, 59, 1)" offset="0%"/><stop stop-color="rgba(0, 157.468, 80.942, 1)" offset="100%"/></linearGradient></defs><path style="transform:translate(0, 0px); opacity:1" fill="url(#sw-gradient-0)" d="M0,196L60,236.8C120,278,240,359,360,383.8C480,408,600,376,720,310.3C840,245,960,147,1080,114.3C1200,82,1320,114,1440,122.5C1560,131,1680,114,1800,163.3C1920,212,2040,327,2160,310.3C2280,294,2400,147,2520,114.3C2640,82,2760,163,2880,204.2C3000,245,3120,245,3240,212.3C3360,180,3480,114,3600,73.5C3720,33,3840,16,3960,81.7C4080,147,4200,294,4320,302.2C4440,310,4560,180,4680,155.2C4800,131,4920,212,5040,212.3C5160,212,5280,131,5400,155.2C5520,180,5640,310,5760,326.7C5880,343,6000,245,6120,245C6240,245,6360,343,6480,351.2C6600,359,6720,278,6840,236.8C6960,196,7080,196,7200,236.8C7320,278,7440,359,7560,326.7C7680,294,7800,147,7920,81.7C8040,16,8160,33,8280,57.2C8400,82,8520,114,8580,130.7L8640,147L8640,490L8580,490C8520,490,8400,490,8280,490C8160,490,8040,490,7920,490C7800,490,7680,490,7560,490C7440,490,7320,490,7200,490C7080,490,6960,490,6840,490C6720,490,6600,490,6480,490C6360,490,6240,490,6120,490C6000,490,5880,490,5760,490C5640,490,5520,490,5400,490C5280,490,5160,490,5040,490C4920,490,4800,490,4680,490C4560,490,4440,490,4320,490C4200,490,4080,490,3960,490C3840,490,3720,490,3600,490C3480,490,3360,490,3240,490C3120,490,3000,490,2880,490C2760,490,2640,490,2520,490C2400,490,2280,490,2160,490C2040,490,1920,490,1800,490C1680,490,1560,490,1440,490C1320,490,1200,490,1080,490C960,490,840,490,720,490C600,490,480,490,360,490C240,490,120,490,60,490L0,490Z"/></svg>